<?xml version="1.0" encoding="UTF-8"?>
<svg width="345px" height="92px" viewBox="0 0 345 92" version="1.1" xmlns="http://www.w3.org/2000/svg" xmlns:xlink="http://www.w3.org/1999/xlink">
    <title>kinoteka-logo</title>
    <g id="Page-1" stroke="none" stroke-width="1" fill="none" fill-rule="evenodd">
        <g id="kinoteka-logo" fill="#231F20" fill-rule="nonzero">
            <path d="M222.862329,17.4785659 L222.862329,74.244985 C222.862329,74.244985 245.832137,71.4002954 245.832137,71.4002954 L245.832137,20.436477 L222.862329,17.4785659 Z M238.529351,65.3287935 L230.533084,66.0647332 L230.476474,25.3616114 L238.614268,26.140009 L238.543504,65.3146408 L238.529351,65.3287935 Z" id="Shape"></path>
            <polygon id="Path" points="87.4352874 0.198137589 87.3928293 91.1149854 99.1961685 89.6714116 99.1961685 49.0107478 119.561882 87.0956229 133.530582 85.383148 108.720925 41.7221151 131.167084 5.78844813 117.722033 4.04766788 99.3943061 35.3675596 99.4226115 1.71247487"></polygon>
            <path d="M340.301309,32.5511753 C340.301309,32.5511753 333.35234,31.6595561 333.35234,31.6595561 L329.007466,61.0829881 L333.861837,60.4885753 L334.385486,56.5258235 C334.385486,56.5258235 339.933339,56.0021742 339.933339,56.0021742 L340.541904,59.6535669 L345,59.1016122 C345,59.1016122 340.301309,32.5370226 340.301309,32.5370226 L340.301309,32.5511753 Z M334.923288,52.2941707 L336.862206,37.0800345 L339.296468,52.0394224 L334.923288,52.2941707 L334.923288,52.2941707 Z" id="Shape"></path>
            <polygon id="Path" points="174.615826 11.3363006 187.1268 12.935554 197.88284 57.9977028 197.288428 14.2517537 206.247077 15.3981212 206.218772 76.3395824 194.571112 77.7831563 183.999056 32.565328 184.211347 79.0710506 174.615826 80.2740288"></polygon>
            <polygon id="Path" points="155.905977 82.6092218 144.654592 84.0103376 144.682898 7.52922837 155.905977 8.91619149"></polygon>
            <polygon id="Path" points="254.536038 21.5545391 254.536038 27.6968044 262.588916 28.4610493 262.588916 69.348156 270.14645 68.4282315 270.118144 29.1828363 277.831357 29.9046232 277.831357 24.5266029"></polygon>
            <polygon id="Path" points="284.143455 25.3616114 284.242524 66.6591459 298.069697 64.9325184 298.069697 59.8941625 290.4414 60.5876441 290.483858 47.9917545 297.022398 47.9068384 297.022398 42.9250933 290.356484 42.7552611 290.342331 31.1217541 298.14046 31.8576937 298.14046 27.1590023"></polygon>
            <polygon id="Path" points="307.113263 28.3053698 307.084957 63.8144562 312.448825 63.1351274 312.448825 48.4304878 318.888296 62.342577 324.450302 61.6632481 315.477499 44.3686672 323.686057 30.4141199 317.826845 29.6640276 312.194076 41.1701604 312.194076 28.9422406"></polygon>
            <polygon id="Path" points="5.434631 2.39180375 5.434631 19.1485827 2.87299504 19.1485827 2.87299504 2.39180375 -1.00560875e-14 2.39180375 -1.00560875e-14 0.155679534 8.39254215 0.155679534 8.39254215 2.39180375"></polygon>
            <polygon id="Path" points="15.7519383 19.13443 15.7519383 10.3173073 13.4450507 10.3173073 13.4450507 19.13443 10.9400254 19.13443 10.9400254 0.155679534 13.4450507 0.155679534 13.4450507 7.86889281 15.7519383 7.86889281 15.7519383 0.155679534 18.2569635 0.155679534 18.2569635 19.13443"></polygon>
            <polygon id="Path" points="21.3564015 19.13443 21.3564015 0.155679534 27.6260409 0.155679534 27.6260409 2.51917791 23.8897321 2.51917791 23.8897321 8.08118308 27.2297658 8.08118308 27.2297658 10.4446815 23.9180375 10.4446815 23.9180375 16.7426262 27.6260409 16.7426262 27.6260409 19.13443"></polygon>
            <path d="M35.933667,19.13443 L35.933667,18.1720474 C35.933667,16.5586413 36.1176519,14.5914181 38.9198835,10.6145137 C40.5049842,8.37838947 41.0427862,8.10948845 41.0427862,5.61861591 L41.0427862,3.67969808 C41.0427862,2.30688764 40.5615949,1.85400172 39.6133651,1.85400172 C38.2971654,1.85400172 38.1556385,2.7173155 38.1556385,3.41079706 L38.1556385,6.45362432 L35.8487509,6.45362432 L35.8487509,3.04282726 C35.8487509,0.891619149 37.5470731,2.51402186e-15 39.4010748,2.51402186e-15 C41.3966034,2.51402186e-15 43.4062846,0.452885917 43.4062846,3.35418632 L43.4062846,4.82606555 C43.4062846,6.62345654 43.3496739,7.35939615 43.0241621,8.23686262 C42.7269557,9.01526029 42.0334742,10.062559 40.9578701,11.675965 C40.6323584,12.1571563 38.6509825,14.6904869 38.4103868,16.9973746 L43.5195061,16.9973746 L43.5195061,19.1202773 L35.933667,19.1202773 L35.933667,19.13443 Z" id="Path"></path>
            <path d="M45.6707142,19.13443 L45.6707142,18.1720474 C45.6707142,16.5586413 45.8546991,14.5914181 48.6569307,10.6145137 C50.2420314,8.37838947 50.7798334,8.10948845 50.7798334,5.61861591 L50.7798334,3.67969808 C50.7798334,2.30688764 50.2986422,1.85400172 49.3504123,1.85400172 C48.0342126,1.85400172 47.8926857,2.7173155 47.8926857,3.41079706 L47.8926857,6.45362432 L45.5857981,6.45362432 L45.5857981,3.04282726 C45.5857981,0.891619149 47.2841203,2.51402186e-15 49.138122,2.51402186e-15 C51.1336506,2.51402186e-15 53.1433318,0.452885917 53.1433318,3.35418632 L53.1433318,4.82606555 C53.1433318,6.62345654 53.0867211,7.35939615 52.7612093,8.23686262 C52.464003,9.01526029 51.7705214,10.062559 50.6949173,11.675965 C50.3694056,12.1571563 48.3880297,14.6904869 48.1474341,16.9973746 L53.2565533,16.9973746 L53.2565533,19.1202773 L45.6707142,19.1202773 L45.6707142,19.13443 Z" id="Path"></path>
            <path d="M61.5641793,19.13443 L58.4647414,5.20818805 C58.4930467,7.89719818 58.7336424,19.13443 58.7336424,19.13443 L56.3984494,19.13443 L56.3984494,0.155679534 L59.0874595,0.155679534 L62.1302867,13.0912335 C62.1302867,13.0912335 62.0029126,1.34450507 61.9746072,0.155679534 L64.3381056,0.155679534 L64.3381056,19.13443 L61.5641793,19.13443 Z" id="Path"></path>
            <path d="M67.3101694,0.155679534 L71.909792,0.155679534 C74.244985,0.155679534 74.8110924,1.23128359 74.8110924,3.22681216 L74.8110924,15.8651598 C74.8110924,18.2286582 74.244985,19.1485827 72.1220823,19.1485827 L67.3101694,19.1485827 L67.3101694,0.169832219 L67.3101694,0.155679534 Z M71.4710588,16.799237 C72.0371662,16.799237 72.2777618,16.6435575 72.2777618,15.7519383 L72.2777618,3.79291956 C72.2777618,2.87299504 72.1220823,2.47671986 71.2587685,2.47671986 L69.801042,2.47671986 L69.801042,16.8133897 L71.4710588,16.8133897 L71.4710588,16.799237 Z" id="Shape"></path>
            <path d="M26.7485745,24.2152439 C28.8148665,24.2152439 29.3243631,25.106863 29.3243631,27.0316282 L29.3243631,31.0651434 C29.3243631,33.598474 29.2111416,34.5891619 26.7910325,34.5891619 L24.2860073,34.5891619 L24.2860073,43.1939943 L21.8375928,43.1939943 L21.8375928,24.2152439 L26.7344218,24.2152439 L26.7485745,24.2152439 Z M24.3284654,32.338885 L25.9135661,32.338885 C26.5787423,32.338885 26.8051852,32.1549001 26.8051852,31.5038766 L26.8051852,27.4703614 C26.8051852,26.7768798 26.6495057,26.5221315 25.8569553,26.5221315 L24.3284654,26.5221315 L24.3284654,32.3247323 L24.3284654,32.338885 Z" id="Shape"></path>
            <path d="M39.8964188,38.9481889 C39.8964188,42.6278869 37.9008902,43.3779792 35.7496821,43.3779792 C33.598474,43.3779792 31.9284572,42.4863601 31.9284572,38.9481889 L31.9284572,28.9988514 C31.9284572,27.2722238 32.1407474,24.073717 36.0185831,24.073717 C39.4010748,24.073717 39.8964188,26.5221315 39.8964188,29.0413094 L39.8964188,38.9340362 L39.8964188,38.9481889 Z M37.4196989,29.0837675 C37.4196989,27.0882389 37.235714,26.2673832 35.9619724,26.2673832 C34.4334824,26.2673832 34.4334824,27.6118883 34.4334824,28.5035074 L34.4334824,39.344464 C34.4334824,40.3634574 34.5891619,41.3399926 35.8912089,41.3399926 C37.3630882,41.3399926 37.4196989,40.1511671 37.4196989,39.075563 L37.4196989,29.0979202 L37.4196989,29.0837675 Z" id="Shape"></path>
            <polygon id="Path" points="42.939246 43.1939943 42.939246 24.2152439 45.4442712 24.2152439 45.4442712 40.8588013 49.5768552 40.8588013 49.5768552 43.1939943"></polygon>
            <polygon id="Path" points="52.011117 43.1939943 52.011117 24.2152439 54.4878369 24.2152439 54.4878369 43.1939943"></polygon>
            <path d="M59.5969561,36.2591787 L59.5969561,39.7265865 C59.5969561,40.9295648 59.9224679,41.5522829 60.8848505,41.5522829 C62.073676,41.5522829 62.1019814,40.1794725 62.1019814,39.1887845 C62.1019814,36.9809657 60.9414612,35.5798499 60.007384,34.1645814 L58.9883907,32.607786 C58.2382984,31.4472659 57.4599007,30.0744554 57.4599007,27.7675678 C57.4599007,25.7720392 58.5071994,23.8472741 61.309431,23.8472741 C64.1116626,23.8472741 64.5079378,25.6163597 64.5079378,27.1023916 L64.5079378,30.4565779 L62.2152029,30.4565779 L62.2152029,27.2014604 C62.2152029,26.6919637 62.1302867,25.8003446 61.2245149,25.8003446 C60.007384,25.8003446 59.9932313,26.8476433 59.9932313,27.7392624 C59.9932313,29.6781803 60.771629,30.8245477 61.6632481,32.1549001 L63.0077532,34.1504287 C64.1682734,35.8487509 64.67777,37.3772408 64.67777,38.8349674 C64.67777,39.9671822 64.6211593,43.5619641 60.9131558,43.5619641 C59.3846659,43.5619641 58.5779628,42.9109406 58.1392296,42.4297494 C57.3608319,41.5098248 57.3042212,40.5191369 57.3042212,39.4152275 L57.3042212,36.2733314 L59.6111088,36.2733314 L59.5969561,36.2591787 Z" id="Path"></path>
            <polygon id="Path" points="72.1220823 43.1939943 72.1220823 34.3768716 69.8151947 34.3768716 69.8151947 43.1939943 67.3101694 43.1939943 67.3101694 24.2152439 69.8151947 24.2152439 69.8151947 31.9284572 72.1220823 31.9284572 72.1220823 24.2152439 74.6271075 24.2152439 74.6271075 43.1939943"></polygon>
            <polygon id="Path" points="42.3448332 50.6100012 42.3448332 56.1153957 45.9679206 56.1153957 45.9679206 58.4222833 42.3731386 58.4222833 42.3731386 67.239406 39.839808 67.239406 39.839808 48.2606555 46.3500431 48.2606555 46.3500431 50.5958485 42.3448332 50.5958485"></polygon>
            <polygon id="Path" points="48.8550683 67.2535587 48.8550683 48.2748082 51.3317882 48.2748082 51.3317882 67.2535587"></polygon>
            <polygon id="Path" points="54.3321574 67.2535587 54.3321574 48.2748082 56.8371826 48.2748082 56.8371826 64.9183657 60.9697666 64.9183657 60.9697666 67.2535587"></polygon>
            <path d="M72.2636091,67.2535587 C72.2636091,67.2535587 72.2636091,55.1530131 72.1503877,51.9828117 C71.640891,55.5068302 70.0840957,67.2535587 70.0840957,67.2535587 L67.9611929,67.2535587 L65.8099848,51.9828117 L65.8099848,67.2535587 L63.4747918,67.2535587 L63.4747918,48.2748082 L67.0554211,48.2748082 L69.0509497,60.8565451 L70.9049514,48.2748082 L74.5846495,48.2748082 L74.5846495,67.2535587 L72.2777618,67.2535587 L72.2636091,67.2535587 Z" id="Path"></path>
            <polygon id="Path" points="7.52922837 74.6695656 7.52922837 80.17496 11.1523157 80.17496 11.1523157 82.4818476 7.55753374 82.4818476 7.55753374 91.2989703 5.02420314 91.2989703 5.02420314 72.3202199 11.5344382 72.3202199 11.5344382 74.6554129 7.52922837 74.6554129"></polygon>
            <polygon id="Path" points="14.1102269 91.313123 14.1102269 72.3343726 20.3798663 72.3343726 20.3798663 74.6978709 16.6435575 74.6978709 16.6435575 80.2598761 19.9835911 80.2598761 19.9835911 82.6233745 16.6718628 82.6233745 16.6718628 88.9213193 20.3798663 88.9213193 20.3798663 91.313123"></polygon>
            <path d="M25.2059318,84.3783074 L25.2059318,87.8457152 C25.2059318,89.0486934 25.5314436,89.6714116 26.4938261,89.6714116 C27.6826517,89.6714116 27.710957,88.2986011 27.710957,87.3079132 C27.710957,85.1000944 26.5504369,83.6989785 25.6163597,82.2837101 L24.5973664,80.7269147 C23.8472741,79.5663946 23.0688764,78.1935841 23.0688764,75.8866965 C23.0688764,73.8911679 24.1161751,71.9664028 26.9184067,71.9664028 C29.7206383,71.9664028 30.1169135,73.7354884 30.1169135,75.2215203 L30.1169135,78.5757066 L27.8241785,78.5757066 L27.8241785,75.3205891 C27.8241785,74.8110924 27.7392624,73.9194733 26.8334906,73.9194733 C25.6163597,73.9194733 25.602207,74.966772 25.602207,75.8583911 C25.602207,77.7973089 26.3806047,78.9436764 27.2722238,80.2740288 L28.6167289,82.2695574 C29.777249,83.9678796 30.2867457,85.4963695 30.2867457,86.9399434 C30.2867457,88.0721582 30.230135,91.6669401 26.5221315,91.6669401 C24.9936415,91.6669401 24.1869385,91.0159166 23.7482053,90.5347254 C22.9698076,89.6148008 22.9131969,88.6241129 22.9131969,87.5202035 L22.9131969,84.3783074 L25.2200845,84.3783074 L25.2059318,84.3783074 Z" id="Path"></path>
            <polygon id="Path" points="38.0141117 74.5704968 38.0141117 91.313123 35.4524757 91.313123 35.4524757 74.5704968 32.5794807 74.5704968 32.5794807 72.3343726 40.9720228 72.3343726 40.9720228 74.5704968"></polygon>
            <polygon id="Path" points="43.5053534 91.313123 43.5053534 72.3343726 45.9820733 72.3343726 45.9820733 91.313123"></polygon>
            <polygon id="Path" points="54.303852 91.313123 51.3459408 91.313123 48.4446404 72.3343726 50.9496657 72.3343726 52.8885835 87.5485088 54.7425852 72.3343726 57.2193051 72.3343726 54.3180047 91.313123"></polygon>
            <path d="M64.0975099,91.313123 L63.6163187,87.8174099 L60.771629,87.8174099 L60.3470484,91.313123 L57.898634,91.313123 L60.5876441,72.3343726 L63.6304713,72.3343726 L66.5600771,91.313123 L64.1116626,91.313123 L64.0975099,91.313123 Z M62.0878287,75.6319481 L61.04053,85.4963695 L63.3049596,85.4963695 L62.0878287,75.6319481 Z" id="Shape"></path>
            <polygon id="Path" points="69.0934077 91.313123 69.0934077 72.3343726 71.5984329 72.3343726 71.5984329 88.97793 75.7310169 88.97793 75.7310169 91.313123"></polygon>
        </g>
    </g>
</svg>